<svg xmlns="http://www.w3.org/2000/svg" viewBox="0 0 897.61 555"><defs><style>.cls-1{fill:#fbad83;}.cls-2{fill:#19192b;}.cls-3{fill:#303d72;}.cls-4{fill:#26335e;}.cls-5{fill:#fff;}.cls-6{fill:#e68d5c;}.cls-7{fill:#1a2249;}.cls-8{fill:#edf2f7;}.cls-9{fill:#a9c2dc;}.cls-10{fill:#f89900;}.cls-11{fill:#f9c200;}.cls-12{fill:#e56107;}.cls-13{fill:#0cbfd1;}.cls-14{fill:#60d6e6;}.cls-15{fill:#a55b3a;}.cls-16{fill:#8e4a2f;}.cls-17{fill:#dcdde3;}.cls-18{fill:#90523c;}.cls-19{fill:#f0f1f4;}.cls-20{fill:#f76a00;}.cls-21{fill:#edb607;}</style></defs><title>teamwork_white_3</title><g id="Layer_2" data-name="Layer 2"><g id="Layer_3" data-name="Layer 3"><path class="cls-1" d="M512.5,196.63s4.42-.8,12.13,1,17.87,21.66,17.87,21.66a2.34,2.34,0,0,1-2.91,1.34c-2.09-.67-9.75-9.67-9.75-9.67s.69,4.5-5.49,5.67-9.18-1.17-10.18-2.34-1.67-5.7-1.67-5.7Z"/><path class="cls-2" d="M433.48,528v26.06H493a11.68,11.68,0,0,0-7.8-11L459,533.87l-3-11.26Z"/><path class="cls-2" d="M345.88,523.87l-2.13,30H399.5a11.75,11.75,0,0,0-8.28-11.22l-25.34-7.84L364,522.61Z"/><path class="cls-2" d="M435.14,279.68l17.78,133.9,8.15,114.2s-10.38,4.6-20.1,3.82l-9.72-.79L414,415.24l-43.5-128.19Z"/><path class="cls-3" d="M415.07,286s-2.45,125.78-2.4,133.61-45.29,112.81-45.29,112.81-9.6,1.73-17.49-2.73L342,525.22l30.84-117.54s-27-92.56-25.52-115.71l1.46-23.16Z"/><path class="cls-4" d="M348.79,268.81,347.33,292c-.89,14.17,8.87,54.34,16.58,83.37l50.6-59.61c.33-17.29.57-29.73.57-29.73Z"/><path class="cls-4" d="M427.15,109.54l20.71,77.81,67.22,8.35a12.55,12.55,0,0,1,0,10.48l-2.64,5.32s-63.65,3.27-77.26-3S427.15,109.54,427.15,109.54Z"/><path class="cls-3" d="M376.63,98s-23.17,5.62-30.25,11.58c-6.39,5.38-1.94,134.68-.39,163.69a113.76,113.76,0,0,1,0,12.66l-1.25,21.43s57.78,7.29,79,1.53,20.35-2,20.35-2-11.47-188.08-17.85-199.75c-5.29-9.64-33.32-10.8-33.32-10.8Z"/><path class="cls-5" d="M376.63,98s15.37,26.16,22.15,47.51c6.42,20.25,6.56,28.79,6.56,28.79V97.14Z"/><path class="cls-1" d="M376.63,61.45V98s6.13,5.21,16.91,4.59c10-.58,11.57-4.2,11.57-4.2l4.13-18.93Z"/><path class="cls-6" d="M405.81,95.16c-5.37,1.19-11.57-2.15-16.2-5.83-8.54-6.79-12-20.26-12-20.26l28.26,8.49,3.37,1.86Z"/><path class="cls-7" d="M426.42,17.52s4.84,1.81,4.5,13.35c-.15,5.48-2.2,15.84-2.2,15.84L416.11,14.52Z"/><path class="cls-1" d="M427,77.93c-10,21-34.72,8.58-45.31-2s-9.13-51-6.2-58.65,27.42-13.86,40.34-8.92S437,57,427,77.93Z"/><path class="cls-7" d="M389.41,42.89s2.75,23.21,9.1,25.07c5.44,1.59,13-6.17,22.78-6.59,5.45-.23,7.42.29,9.63,1.79A47.65,47.65,0,0,1,427,77.93c-10,21-34.71,8.58-45.3-2-5.13-5.12-7.43-17.23-8.11-29.23Z"/><path class="cls-7" d="M385.25,51.21s3.05.3,4.3-1.52-2.33-12.08,1.29-23c2.58-7.77,14.32-12.27,23.93-10.39s12,2.74,13-.05-2.87-9.36-6.21-12-19-7.19-32-1.88S374,11.31,371.05,19.75s-1.05,29.58,0,30.94S385.25,51.21,385.25,51.21Z"/><path class="cls-1" d="M370.52,49.48c0,5.41,7.18,10.21,11.6,10.21s4.37-4.8,4.37-10.21-3.57-9.79-8-9.79S370.52,44.08,370.52,49.48Z"/><path class="cls-7" d="M430.92,63.16s0,25.41-3,30-12.82,5.57-17.26,3.66S399,88,397.19,82.18,423.53,68,423.53,68Z"/><path class="cls-3" d="M483.8,154.63H445.74a3,3,0,0,1-2.95-3l7.92-57.36a3,3,0,0,1,3-3h38.05a3,3,0,0,1,2.95,3l-7.92,57.36A3,3,0,0,1,483.8,154.63Z"/><path class="cls-8" d="M487.76,154.63H449.71a3,3,0,0,1-3-3l7.92-57.36a3,3,0,0,1,3-3h38.05a3,3,0,0,1,3,3l-7.92,57.36A3,3,0,0,1,487.76,154.63Z"/><path class="cls-9" d="M477.53,115.12c-.3,3.13-2.28,5.5-4.42,5.29s-3.63-2.91-3.32-6,2.28-5.5,4.42-5.3S477.83,112,477.53,115.12Z"/><path class="cls-1" d="M442.32,145.47s21.46-7,24.69-11.65,3.34-13.23,1.15-15.52-18.23,3.65-21.25,4,.1-1.21.1-1.21l.9-6.47a23.39,23.39,0,0,0-8,5.18c-4.38,4.06-4.17,8.75-4.79,10.42s-4.22,5.52-4.22,5.52Z"/><path class="cls-3" d="M351.54,106.38s7.13-1.14,11.71,4.27,13.3,75.8,13.3,75.8l55-55.66S439.92,136,442,140.84l2.08,4.82s-46.73,69.49-67.54,75.58S337,152.19,337,132.05,351.54,106.38,351.54,106.38Z"/><path class="cls-6" d="M373.43,47c-.51,2.42,2.25,5.25,4.23,5.67s-2.27-2.89-1.76-5.31,4-3.57,2-4S374,44.54,373.43,47Z"/><path class="cls-4" d="M365.67,264.06l-.92,42.57,9.84.79a28.85,28.85,0,0,0,31.13-27.5l.68-15.51S372,266.36,365.67,264.06Z"/><path class="cls-4" d="M440.81,259.18l-14.89,2.39s6.71,25,10.67,32.15a18.57,18.57,0,0,0,6,6.83,1.53,1.53,0,0,0,2.35-1.38l-2.41-38.57A1.52,1.52,0,0,0,440.81,259.18Z"/><path class="cls-5" d="M425.79,71.47s-10.55.28-12.31-.28l-1.75-.56s0,5.15,4.93,6.94,7.57-1.51,8.22-3.33S425.79,71.47,425.79,71.47Z"/><path class="cls-7" d="M423.16,39.37a1,1,0,0,1-.94-.67,1,1,0,0,1,.61-1.27,16.54,16.54,0,0,1,9.34,0,1,1,0,0,1-.55,1.92,14.73,14.73,0,0,0-8.12,0A1,1,0,0,1,423.16,39.37Z"/><path class="cls-7" d="M405.37,42a1,1,0,0,1-.66-.25,1,1,0,0,1-.1-1.41c.19-.22,4.69-5.27,12.67-2.73a1,1,0,0,1,.64,1.26,1,1,0,0,1-1.25.65c-6.75-2.15-10.51,2.09-10.55,2.13A1,1,0,0,1,405.37,42Z"/><polygon class="cls-2" points="265.52 528.33 265.52 553.76 317.61 553.76 317.61 546.82 290.36 539.72 286 526.67 265.52 528.33"/><path class="cls-10" d="M208.34,520l-4.67,33.93h51a11.52,11.52,0,0,0-8.24-11L226.6,537V522.75Z"/><path class="cls-10" d="M299.75,132.85,313,196.63l84,21.26L394,232s-75-4.71-94.5-14.11-22-80.6-22-80.6Z"/><path class="cls-2" d="M280,285,289.18,392V531.22s-12.44,3.33-18.81,1.8L264,531.5s-4.72-127.58-6.11-135S212,283.18,212,283.18Z"/><path class="cls-3" d="M200.34,268.88s-5.31,13.63-6.26,37.4,28.61,81.26,28.61,81.26L204.82,526.65s13.14,5.16,18.62,4.51l5.49-.64s30.05-129,30.2-143.93-4.32-78.94-4.83-84.87,2.18-19.33,2.18-19.33Z"/><path class="cls-11" d="M257.35,122.72l-24.87,8.09L196.34,273.67s50.39,20.9,72.72,19.66,27.69-11,27.69-11l4.64-142a15.87,15.87,0,0,0-9.93-15.24L281.4,121.1Z"/><path class="cls-2" d="M523.71,528l-2.08,25.93H475.47a12.47,12.47,0,0,1,8.45-11.8l16.59-5.63,2.37-13.75Z"/><path class="cls-12" d="M299.32,61.93s4.95,40.14,3,48-21.8,6.25-31.71,5.45-15.14.53-19.46-1.87S254.72,86,254.72,86Z"/><path class="cls-5" d="M289.18,117.68a12.21,12.21,0,0,1-3.2-24,.51.51,0,0,1,.62.35.5.5,0,0,1-.35.61,11.21,11.21,0,1,0,2.93-.39.5.5,0,0,1-.5-.5.51.51,0,0,1,.5-.5,12.21,12.21,0,0,1,0,24.42Z"/><rect class="cls-3" x="611.19" y="391.97" width="18.98" height="161.79"/><path class="cls-3" d="M558.56,553.93h0a14.21,14.21,0,0,1,14.21-14.21H668.6a14.21,14.21,0,0,1,14.21,14.21Z"/><path class="cls-3" d="M579.42,387.41H666a34.62,34.62,0,0,0,34.63-34.63V227.5a12,12,0,0,0-12-12H591.42a12,12,0,0,0-12,12Z"/><path class="cls-9" d="M569.56,377.26h94.21a27,27,0,0,0,27-27V227.5a12,12,0,0,0-12-12H581.56a12,12,0,0,0-12,12Z"/><path class="cls-9" d="M526.6,377.26H664.71v10.15H526.6a5.08,5.08,0,1,1,0-10.15Z"/><path class="cls-3" d="M647.51,377.26h21.61v10.15H647.51a5.08,5.08,0,0,1,0-10.15Z"/><rect class="cls-3" x="606.75" y="387.41" width="27.86" height="18.1"/><rect class="cls-2" x="611.19" y="405.51" width="18.98" height="16.68"/><path class="cls-13" d="M558.11,187.13l-33.48,92.2L455.75,290.5v17.92s67,0,71.75,0,18-4.4,25.75-29.65S558.11,187.13,558.11,187.13Z"/><path class="cls-14" d="M614.21,168.19l40.46,15.12,9.52,159.49c-34.9,2.59-71.19,5.07-112.06-1.55-5.37-.87-3.3,0-8.49-1,8.57-51.41,5-98.64,13.27-149.12a16.36,16.36,0,0,1,8.63-11.88l20.55-10.66Z"/><path class="cls-13" d="M581.49,284.1l-29.88,7.4-3.23,8.05c-1,13.36-2.44,26.87-4.74,40.68,5.19,1,3.12.15,8.49,1,40.87,6.62,77.16,4.14,112.06,1.55l-6.57-110.11-30.8-25.45-2.69,27.52A56.49,56.49,0,0,1,581.49,284.1Z"/><path class="cls-2" d="M574.67,340.67s-29.17-.84-47.17,0S507.34,359.26,505,374s-5.41,157-5.41,157H528l28-170.5Z"/><path class="cls-3" d="M661.57,343l-1,10.73a25.84,25.84,0,0,1-25.74,23.54H579.42L550.47,533l-25.84-4.52s6.66-164.83,21-178.5,52.44-9,52.44-9Z"/><path class="cls-15" d="M614.21,132.14v36.05s-6.05,5.14-16.7,4.52c-9.85-.57-11.42-4.14-11.42-4.14L582,149.88l32.19-17.74"/><path class="cls-16" d="M585.4,165.42a42.44,42.44,0,0,0,10.91-6.52,31.54,31.54,0,0,0,10.63-15l-21.6,4.11L582,149.88l3.38,15.54"/><rect class="cls-7" x="558.26" y="111.17" width="18.3" height="1"/><path class="cls-7" d="M563.71,85.9s-3.11,7.68-3.11,14.4c0,5.41,2.18,15.63,2.18,15.63l12.45-31.78Z"/><path class="cls-15" d="M564.46,146.76c9.85,20.71,34.28,8.47,44.74-2s9-50.34,6.12-57.9-27.08-13.69-39.83-8.81-20.87,48-11,68.68"/><path class="cls-17" d="M560.61,132.17h0a47.33,47.33,0,0,0,3.85,14.59C568.37,155,574.59,158,581.32,158h0c-6.73,0-13-3-16.87-11.26a47.4,47.4,0,0,1-3.85-14.59"/><path class="cls-18" d="M617.2,115.93h-11s-7.3,19.15-13.58,21a5.61,5.61,0,0,1-1.54.21c-5.22,0-12.18-6.35-20.95-6.72-.81,0-1.54,0-2.21,0-3.75,0-5.43.56-7.29,1.81a47.4,47.4,0,0,0,3.85,14.59C568.38,155,574.6,158,581.33,158c10.19,0,21.56-6.94,27.86-13.23,5.06-5,7.33-17,8-28.86"/><path class="cls-7" d="M613.91,118.46A13.25,13.25,0,0,1,602,103.62c.56-4.49,1.88-5.93.71-10.18-2.32-8.47-12.48-7.68-19.34-4.52S569,92.07,563.12,87.61a10.78,10.78,0,0,1-2.52-14.19C564.43,67.25,578,59.84,578,59.84s-1.65,3.7-1.1,5.62,36.62-8.91,44,7.14-2.47,46.28-2.47,46.28Z"/><path class="cls-15" d="M620.25,118.68c0,5.34-7.1,10.08-11.46,10.08s-4.32-4.74-4.32-10.08S608,109,612.36,109,620.25,113.34,620.25,118.68Z"/><path class="cls-16" d="M617,118.2c.51,2.39-2.22,5.18-4.17,5.6s2.24-2.86,1.74-5.25-4-3.52-2-3.93S616.49,115.81,617,118.2Z"/><path class="cls-7" d="M565,123c-4,0-7.28-4.23-7.28-9.42s3.27-9.41,7.28-9.41,7.29,4.22,7.29,9.41S569.06,123,565,123Zm0-17.83c-3.46,0-6.28,3.77-6.28,8.41S561.58,122,565,122s6.29-3.78,6.29-8.42S568.51,105.19,565,105.19Z"/><path class="cls-7" d="M582,123c-4,0-7.29-4.23-7.29-9.42s3.27-9.41,7.29-9.41,7.29,4.22,7.29,9.41S586,123,582,123Zm0-17.83c-3.47,0-6.29,3.77-6.29,8.41S578.55,122,582,122s6.29-3.78,6.29-8.42S585.48,105.19,582,105.19Z"/><rect class="cls-7" x="588.64" y="111.17" width="16.9" height="1"/><rect class="cls-7" x="571.83" y="111.17" width="3.39" height="1"/><path class="cls-5" d="M568.17,137h16.77s-3.4,7.25-9.06,7.46S568.17,137,568.17,137Z"/><path class="cls-7" d="M561.27,137.29H587s-.4-5.35-4.83-7.45-9.24.53-10.76.45-5.65-2.78-8-1.59S561.27,137.29,561.27,137.29Z"/><polygon class="cls-2" points="159.91 553.93 147.29 553.93 189.15 320.47 201.77 320.47 159.91 553.93"/><path class="cls-4" d="M661.26,353.72l1-10.73-63.45-2a134.51,134.51,0,0,0-13.83-.76l33.91,37h16.67A25.84,25.84,0,0,0,661.26,353.72Z"/><polygon class="cls-9" points="152.67 553.93 140.05 553.93 181.92 320.47 194.54 320.47 152.67 553.93"/><polygon class="cls-9" points="310.93 553.93 323.55 553.93 281.68 320.47 269.06 320.47 310.93 553.93"/><polygon class="cls-2" points="304.99 553.93 317.61 553.93 275.74 320.47 263.12 320.47 304.99 553.93"/><polygon class="cls-2" points="589.82 553.93 577.2 553.93 619.07 320.47 631.69 320.47 589.82 553.93"/><polygon class="cls-9" points="582.59 553.93 569.97 553.93 611.83 320.47 624.45 320.47 582.59 553.93"/><rect class="cls-3" x="569.97" y="308.4" width="188.44" height="12.07"/><rect class="cls-2" x="569.97" y="314.43" width="188.44" height="6.03"/><polygon class="cls-9" points="745.78 553.93 758.4 553.93 716.54 320.47 703.92 320.47 745.78 553.93"/><polygon class="cls-2" points="739.85 553.93 752.47 553.93 710.6 320.47 697.98 320.47 739.85 553.93"/><rect class="cls-3" x="410.96" y="302.44" width="37.38" height="5.98"/><rect class="cls-5" x="140.05" y="308.42" width="429.86" height="12.07"/><rect class="cls-9" x="140.05" y="314.45" width="429.86" height="6.03"/><path class="cls-9" d="M502.34,291.5h-173a7.46,7.46,0,0,1-7.47-7.47V162.13a7.46,7.46,0,0,1,7.47-7.47h173Z"/><path class="cls-3" d="M502.34,291.5h0a5.5,5.5,0,0,1-5.5-5.5V160.16a5.5,5.5,0,0,1,5.5-5.5Z"/><polygon class="cls-9" points="414.84 308.42 372.5 308.42 388.17 217.89 430.51 217.89 414.84 308.42"/><polygon class="cls-3" points="430.51 217.89 430.51 292.08 417.67 292.08 430.51 217.89"/><path class="cls-5" d="M417.74,196.63c0,5.62-3.42,10.18-7.64,10.18s-7.63-4.56-7.63-10.18,3.42-10.18,7.63-10.18S417.74,191,417.74,196.63Z"/><polygon class="cls-19" points="524.02 308.42 544.34 308.42 547.83 268.2 520.52 268.2 524.02 308.42"/><path class="cls-3" d="M526.59,306.42h15.17l1.88-21.59a10.64,10.64,0,0,0-6.3-.14c-4.19.84-6.14-.47-9.29-1.44-1.33-.42-2.86,1.24-3.42.63C525.5,293.9,525.72,296.4,526.59,306.42Z"/><path class="cls-1" d="M283.3,104.77l-1.9,16.33s-2.24,3.78-14.07,3.78a22.06,22.06,0,0,1-9.89-2.16l0-28.81Z"/><path class="cls-6" d="M283.3,104.77,282,116a21.9,21.9,0,0,1-6.45-.49c-2.78-.64-10.74-8.87-15.78-20.64Z"/><path class="cls-1" d="M298.54,52.85s2.76,27.37-1.09,40.62S281.6,112.33,271,109.89c-3.93-.9-18.17-16.9-20-36.67s-.08-25.74,3.14-29.91,32.44-9.39,37.74-4.82S298.54,52.85,298.54,52.85Z"/><path class="cls-20" d="M289.18,51.86s9,12.65,11.2,13,2.51-8,1.95-15.6c-.89-11.93-9.19-17.22-9.19-17.22Z"/><path class="cls-20" d="M297.7,41.84S295,56.59,289.42,65.41,262.69,71,259,71.29s.54,29.92,3.21,39.81-16.57,7-22.71,5.61-9.36-53.43-1.34-73.61,41.15-19.39,50.24-15A16.72,16.72,0,0,1,297.7,41.84Z"/><path class="cls-12" d="M239.44,116.71c6.15,1.34,25.39,4.28,22.72-5.61a187.4,187.4,0,0,1-4.5-29l-24.2-9.44C232.71,93.65,235.46,115.85,239.44,116.71Z"/><path class="cls-1" d="M249.83,87.77c0,3.89,5.17,7.35,8.34,7.35s3.15-3.46,3.15-7.35-2.58-7-5.75-7S249.83,83.88,249.83,87.77Z"/><path class="cls-6" d="M252.32,86.05c.37-1.9,3.24-3.11,4.79-2.8s-2.52,1.39-2.89,3.3,1.8,3.8.25,3.5S252,88,252.32,86.05Z"/><path class="cls-20" d="M274.62,78.85a1,1,0,0,1-.84-.45,1,1,0,0,1,.29-1.38l6.59-4.28a1,1,0,0,1,.8-.13l4.87,1.28a1,1,0,1,1-.5,1.93l-4.45-1.16-6.22,4A1,1,0,0,1,274.62,78.85Z"/><path class="cls-20" d="M301.6,77.1a1,1,0,0,1-.54-.16l-3.51-2.28-4.45,1.16a1,1,0,0,1-.51-1.93l4.88-1.28a1,1,0,0,1,.79.13l3.89,2.52a1,1,0,0,1,.29,1.38A1,1,0,0,1,301.6,77.1Z"/><path class="cls-5" d="M257.44,117.68a12.21,12.21,0,0,1-3.2-24,.5.5,0,1,1,.26,1,11.21,11.21,0,1,0,2.94-.39.5.5,0,0,1-.5-.5.5.5,0,0,1,.5-.5,12.21,12.21,0,0,1,0,24.42Z"/><path class="cls-21" d="M196,273.67s36.52,15.15,61.16,18.89L231.13,134.9Z"/><path class="cls-3" d="M547.83,528l-2.08,25.93H499.59a12.47,12.47,0,0,1,8.45-11.8l16.59-5.63L527,522.75Z"/><path class="cls-15" d="M554.84,306.42s-10,1.83-16.34.91-12.58-3.73-13.87-10.95,2.21-8.55,4.21-9.05,17,4.17,17,4.17l.57-6.47a6.87,6.87,0,0,1,2.78,3.28c1.19,2.52,2.14,4.58,2.14,4.58Z"/><path class="cls-14" d="M627.3,209.22l22,76.45-97.73,5.83s-2.57,9.67,0,16.92l106.8,0a16.78,16.78,0,0,0,16.69-18.55c-3.49-33.26-11-99.93-15.1-103.4a26.56,26.56,0,0,0-22.66-5.12c-2.74.65-5,2.87-6.82,5.6A26.82,26.82,0,0,0,627.3,209.22Z"/><path class="cls-1" d="M263.12,290.67a29.85,29.85,0,0,1,3.22,4.32c1.66,2.68,25,7.51,27.33,8.68s2.63,4.75,2.63,4.75H263.42a12.75,12.75,0,0,1-12.63-11l-.95-6.78Z"/><path class="cls-11" d="M236.14,130.15a10.28,10.28,0,0,0-10.07,9.95c-.68,19.43-2.14,64-1.55,73.28.75,12,24.74,80.81,24.74,80.81a19.21,19.21,0,0,0,10.87,0l5.39-1.81s-15.77-73.5-16.26-79,4.89-67,3.32-76.75C251.69,131,243.21,130,236.14,130.15Z"/><path class="cls-2" d="M714.86,425H700.47a26.6,26.6,0,0,0-26.61,26.61v68a26.6,26.6,0,0,0,26.61,26.61h16.18v-9H700.47a17.62,17.62,0,0,1-17.63-17.63v-68A17.63,17.63,0,0,1,700.47,434h14.39Z"/><rect class="cls-2" x="738.5" y="401.48" width="28.4" height="31.12" rx="6.83" ry="6.83"/><rect class="cls-13" x="743.62" y="401.48" width="28.4" height="31.12" rx="6.83" ry="6.83"/><rect class="cls-3" x="693.31" y="413.61" width="93.37" height="140.15" rx="12" ry="12"/><rect class="cls-14" x="714.86" y="413.61" width="93.37" height="140.15" rx="12" ry="12"/><path class="cls-13" d="M726.86,553.76h69.37a12,12,0,0,0,12-12V494.5l-93.37,32.11v15.15A12,12,0,0,0,726.86,553.76Z"/><path class="cls-2" d="M787,543.64h-51a12,12,0,0,1-12-12V459.69h63a12,12,0,0,1,12,12v59.95A12,12,0,0,1,787,543.64Z"/><path class="cls-3" d="M791.07,543.64h-51a12,12,0,0,1-12-12V459.69h75v71.95A12,12,0,0,1,791.07,543.64Z"/><rect class="cls-2" x="724.06" y="423.93" width="74.97" height="31.12" rx="6.83" ry="6.83"/><rect class="cls-3" x="728.1" y="423.93" width="74.97" height="31.12" rx="6.83" ry="6.83"/><polygon class="cls-2" points="156.14 421.63 176.69 555 182.71 555 174.83 421.63 156.14 421.63"/><polygon class="cls-2" points="164.18 421.63 180.4 555 186.42 555 178.54 421.63 164.18 421.63"/><polygon class="cls-2" points="254.04 421.63 274.58 555 280.6 555 272.73 421.63 254.04 421.63"/><polygon class="cls-9" points="262.07 421.63 278.29 555 284.31 555 276.44 421.63 262.07 421.63"/><polygon class="cls-2" points="162.13 421.63 141.59 555 135.56 555 143.44 421.63 162.13 421.63"/><path class="cls-14" d="M63.72,279.09h88.87a34.66,34.66,0,0,1,34.66,34.66,34.66,34.66,0,0,0,34.66,34.66h32.84a34.66,34.66,0,0,1,34.66,34.66v38.55H34V308.84A29.76,29.76,0,0,1,63.72,279.09Z"/><polygon class="cls-9" points="154.1 421.63 137.88 555 131.86 555 139.74 421.63 154.1 421.63"/><polygon class="cls-2" points="64.24 421.63 43.7 555 37.67 555 45.55 421.63 64.24 421.63"/><polygon class="cls-9" points="56.21 421.63 39.99 555 33.96 555 41.84 421.63 56.21 421.63"/><rect class="cls-3" y="553.43" width="897.61" height="1"/><polygon class="cls-13" points="33.96 421.63 33.96 340.3 289.41 399.42 289.41 421.63 33.96 421.63"/><path class="cls-4" d="M728.1,510.66v21a12,12,0,0,0,12,12h51a12,12,0,0,0,12-12V482.89Z"/></g></g></svg>