<svg xmlns="http://www.w3.org/2000/svg" xmlns:xlink="http://www.w3.org/1999/xlink" viewBox="0 0 787.79 489.87"><defs><style>.cls-1{fill:none;}.cls-2{fill:#fbad83;}.cls-3{fill:#e68d5c;}.cls-4{fill:#19192b;}.cls-5{fill:#303d72;}.cls-6{fill:#0cbfd1;}.cls-7{fill:#60d6e6;}.cls-8{clip-path:url(#clip-path);}.cls-9{fill:#50cad3;}.cls-10{fill:#313154;}.cls-11{fill:#a9c2dc;}.cls-12{fill:#1a2249;}.cls-13{fill:#cfdce3;}.cls-14{fill:#fff;}.cls-15{fill:#ffa9ad;}.cls-16{fill:#d67f8a;}.cls-17{fill:#ee9ca6;}.cls-18{fill:#f0f1f4;}.cls-19{fill:#f9c200;}.cls-20{fill:#edb607;}.cls-21{fill:#5fd6e6;}.cls-22{fill:#ffb5b9;}.cls-23{fill:#f1abb3;}.cls-24{fill:#4f5a87;}.cls-25{fill:#fcb995;}.cls-26{fill:#ea9e74;}.cls-27{fill:#3c4364;}.cls-28{fill:#00c99c;}.cls-29{fill:#27345e;}.cls-30{fill:#ffb0b2;}.cls-31{fill:#00b98f;}.cls-32{fill:#068e6a;}.cls-33{fill:#ff9398;}.cls-34{fill:#f4828b;}</style><clipPath id="clip-path"><path class="cls-1" d="M527.1,279.8s-92.45-11-110.59-3.85S416,383.69,430.8,435.36L435.75,453s5.45,3.3,16.19,0l10.74-3.3S450,320.48,451.94,316.08s12.79-3.42,12.79-3.42H527.1V279.8"/></clipPath></defs><title>teamwork_white_14</title><g id="Layer_2" data-name="Layer 2"><g id="Layer_14" data-name="Layer 14"><path class="cls-2" d="M586.58,96.94l-5.94,24.49a21.67,21.67,0,0,1-18.67,1l-10.33-4.23,4.56-27Z"/><path class="cls-3" d="M556.26,91.24l-4,23.79A53.5,53.5,0,0,0,565,108.8a46.9,46.9,0,0,0,4.29-3.19c2.63-2.21,4.77-6,6.48-10.7Z"/><ellipse class="cls-4" cx="588.27" cy="74.96" rx="9.69" ry="15.38"/><ellipse class="cls-4" cx="591.9" cy="74.96" rx="9.69" ry="15.38"/><ellipse class="cls-4" cx="596.96" cy="74.96" rx="5.28" ry="8.38"/><path class="cls-4" d="M593.67,75c0-4.63,2.36-8.38,5.28-8.38s5.27,3.75,5.27,8.38-2.36,8.37-5.27,8.37S593.67,79.58,593.67,75Z"/><path class="cls-4" d="M401.86,445.5l-25.46,44H331.57a11,11,0,0,1,7.71-10.47l24.86-7.71,23.91-43.9Z"/><path class="cls-5" d="M459,447.13l7.62,42.24H405.05a11.25,11.25,0,0,1,8.71-11l25.5-8.93L437,449.1Z"/><path class="cls-6" d="M479.36,303.57,403.92,447s-16,1.24-19.14-5.36l-3.12-6.6,52.77-139.75Z"/><path class="cls-7" d="M527.1,279.8s-92.45-11-110.59-3.85S416,383.69,430.8,435.36L435.75,453s5.45,3.3,16.19,0l10.74-3.3S450,320.48,451.94,316.08s12.79-3.42,12.79-3.42H527.1Z"/><g class="cls-8"><path class="cls-9" d="M526.44,296.86l-22.52-19.44c-7.94-.77-17.3-1.6-27-2.29l-26.84,37.53,2.26,2c3.37-2.77,11.7-2,11.7-2h62.36Z"/></g><polyline class="cls-10" points="307.19 243.52 343.34 243.52 343.34 158.85 307.19 158.85 307.19 243.52"/><polyline class="cls-11" points="311.72 243.52 347.88 243.52 347.88 158.85 311.72 158.85 311.72 243.52"/><rect class="cls-11" x="330.69" y="238.29" width="61.58" height="5.23"/><rect class="cls-10" x="311.72" y="238.29" width="39.42" height="5.23"/><path class="cls-10" d="M533.24,81.15c-4,0-7.3-4.23-7.3-9.44s3.28-9.43,7.3-9.43,7.31,4.23,7.31,9.43S537.27,81.15,533.24,81.15Zm0-17.87c-3.47,0-6.3,3.79-6.3,8.43s2.83,8.44,6.3,8.44,6.31-3.79,6.31-8.44S536.72,63.28,533.24,63.28Z"/><path class="cls-2" d="M537.22,96.73c7.42,19.75,29,13.6,41.92,5.07a48.32,48.32,0,0,0,4.29-3.19c11.67-9.83,13.67-51,11.35-59S568.11,23.11,554.56,27,528.9,74.56,537.22,96.73Z"/><path class="cls-12" d="M576,100.56A17.27,17.27,0,0,0,592.82,88c4.72-16.77,10.69-45,0-52.62-15.51-11-28.74-14.15-42.38-9s-14.3,18-12.15,22.15,6.84,1.09,8.37,7.24c.76,3-.77,9.23-2.52,14.74a10.75,10.75,0,0,0,7.49,13.6,12.72,12.72,0,0,0,12.06,16.39Z"/><path class="cls-13" d="M555.27,80.59c-.68,5.28-6,9.36-9,9s-2.3-5.07-1.62-10.35,3.59-9.26,6.52-8.88S555.94,75.31,555.27,80.59Z"/><polygon class="cls-4" points="684.99 489.54 697.63 489.54 655.69 255.61 643.04 255.61 684.99 489.54"/><polygon class="cls-11" points="692.24 489.54 704.88 489.54 662.93 255.61 650.29 255.61 692.24 489.54"/><polygon class="cls-11" points="533.67 489.54 521.02 489.54 562.97 255.61 575.62 255.61 533.67 489.54"/><polygon class="cls-4" points="539.62 489.54 526.98 489.54 568.92 255.61 581.57 255.61 539.62 489.54"/><polygon class="cls-4" points="254.21 489.54 266.86 489.54 224.91 255.61 212.26 255.61 254.21 489.54"/><polygon class="cls-11" points="261.46 489.54 274.11 489.54 232.16 255.61 219.51 255.61 261.46 489.54"/><rect class="cls-14" x="85.29" y="243.52" width="619.59" height="12.09"/><rect class="cls-11" x="85.29" y="249.56" width="619.59" height="6.05"/><rect class="cls-5" x="85.29" y="243.52" width="188.81" height="12.09"/><rect class="cls-4" x="85.29" y="249.56" width="188.81" height="6.05"/><polygon class="cls-11" points="97.94 489.54 85.29 489.54 127.24 255.61 139.88 255.61 97.94 489.54"/><polygon class="cls-4" points="103.89 489.54 91.24 489.54 133.19 255.61 145.84 255.61 103.89 489.54"/><path class="cls-10" d="M422.1,222.72H248a6.11,6.11,0,0,1-6.11-6.11L231.39,84.26a6.12,6.12,0,0,1,6.11-6.11H411.62a6.11,6.11,0,0,1,6.11,6.11l10.48,132.35a6.12,6.12,0,0,1-6.11,6.11"/><path class="cls-11" d="M427.05,222.72H252.93a6.11,6.11,0,0,1-6.11-6.11L236.34,84.26a6.12,6.12,0,0,1,6.11-6.11H416.57a6.12,6.12,0,0,1,6.11,6.11l10.48,132.35a6.12,6.12,0,0,1-6.11,6.11"/><path class="cls-15" d="M298.18,60.34H218.75a5.85,5.85,0,0,0-5.85,5.86l10,126.81a5.85,5.85,0,0,0,5.86,5.85h11.67l-9.07-114.6a6.12,6.12,0,0,1,6.11-6.11h56.11l4.57-17.81m43.57,0H331.42l-4.57,17.81h10.33l4.57-17.81m43.84,0H375l-4.57,17.81h22l-.95-12a5.85,5.85,0,0,0-5.85-5.86"/><path class="cls-16" d="M242.45,78.15H237.5a6.12,6.12,0,0,0-6.11,6.11l9.07,114.6h4.95l-9.07-114.6a6.12,6.12,0,0,1,6.11-6.11"/><path class="cls-17" d="M337.18,78.15H326.85l-1,4a18.42,18.42,0,0,1,6.32,2.41,13.48,13.48,0,0,1,2.64,2.94l2.4-9.38m55.21,0h-22L348.5,163.63l.18.19c5.77,6.59,11.33,35,11.33,35H257.77s4.13-27,11.34-32.57a20,20,0,0,1,2.28-1.49l22.22-86.65H242.45a6.12,6.12,0,0,0-6.11,6.11l9.07,114.6H395.63a5.85,5.85,0,0,0,5.85-5.85L392.39,78.15"/><path class="cls-18" d="M472.74,209.84H378.61a3.3,3.3,0,0,1-3.3-3.3L369.65,135a3.3,3.3,0,0,1,3.3-3.3h94.13a3.3,3.3,0,0,1,3.3,3.3l5.67,71.55A3.31,3.31,0,0,1,472.74,209.84Z"/><path class="cls-18" d="M271.46,78.15H177.33a3.3,3.3,0,0,1-3.3-3.3L168.37,3.3a3.3,3.3,0,0,1,3.3-3.3H265.8a3.3,3.3,0,0,1,3.3,3.3l5.67,71.55A3.31,3.31,0,0,1,271.46,78.15Z"/><rect class="cls-10" x="526.53" y="69.28" width="30.28" height="1"/><path class="cls-19" d="M581.57,117.58s-11.54,3-19.62,2.26-10.31-1.64-10.31-1.64-26.52,3.57-37,11.26-19.79,87.3-19.24,101.78-.78,58-.78,58H605.93s8.79-144.2,0-156S581.57,117.58,581.57,117.58Z"/><rect class="cls-14" x="322.02" y="239.67" width="89.6" height="3.84"/><path class="cls-20" d="M553.79,289.24l5.76-49.57-52-88.94-3,7.22c-5.6,26.82-9.44,63.86-9.08,73.29.55,14.48-.78,58-.78,58Z"/><polygon class="cls-10" points="279.76 243.52 322.02 243.52 322.02 239.67 279.76 236.56 279.76 243.52"/><polygon class="cls-21" points="279.76 236.56 369.36 236.56 411.62 239.67 322.02 239.67 279.76 236.56"/><path class="cls-2" d="M385.36,229.78s-7.85-7.34-16.74-8.37-25.69,6.56-27.74,8.89-.68,4.79,1.18,6.07,20.61,2.95,25.88,2.34,16.74,3.45,16.74,3.45Z"/><path class="cls-19" d="M512.64,131.88l-59.25,89.43L379,224.83s-5.77,10.16,0,18.69h93.23l29.55-40.41a72.24,72.24,0,0,0,13.35-51.75Z"/><path class="cls-11" d="M620.46,150.43H514.71L501.48,291.84l-5,15.25-24.32,15.6H576.1l.43-.15h5.21a28.17,28.17,0,0,0,28.17-28.16l15.49-139A5,5,0,0,0,620.46,150.43Z"/><rect class="cls-5" x="517.59" y="327.26" width="19.02" height="162.11"/><path class="cls-5" d="M464.85,489.54h0a14.23,14.23,0,0,1,14.23-14.24h96a14.24,14.24,0,0,1,14.24,14.24Z"/><rect class="cls-5" x="513.14" y="322.69" width="27.92" height="18.14"/><rect class="cls-4" x="517.59" y="340.83" width="19.02" height="16.71"/><path class="cls-5" d="M509.77,155.38,494.28,292.62a20,20,0,0,1-20,20H450.77a4.94,4.94,0,0,0,0,9.88H476a28.17,28.17,0,0,0,28.17-28.16l15.49-139a4.95,4.95,0,1,0-9.89,0Z"/><polygon class="cls-14" points="254.91 243.52 275.27 243.52 278.77 203.22 251.41 203.22 254.91 243.52"/><path class="cls-10" d="M257.48,241.51h15.21l1.88-21.63a10.58,10.58,0,0,0-6.31-.14c-4.2.85-6.15-.47-9.31-1.45-1.33-.41-2.87,1.25-3.43.64Z"/><path class="cls-4" d="M587.37,24.27a24.18,24.18,0,0,0-35,0,24.51,24.51,0,0,0-1.69,2,26,26,0,0,0-5.51,16.08V64.57h5.77V42.31a20.15,20.15,0,0,1,5.59-14,18.87,18.87,0,0,1,6.41-4.38,18.15,18.15,0,0,1,7-1.38,18.45,18.45,0,0,1,13.36,5.76,18.15,18.15,0,0,1,1.69,2,85.8,85.8,0,0,1,7.91,5,9.59,9.59,0,0,1,1,.87A25.79,25.79,0,0,0,587.37,24.27Z"/><path class="cls-4" d="M561.33,75c0,8.49-4.34,15.37-9.69,15.37S542,83.45,542,75s4.34-15.38,9.69-15.38S561.33,66.47,561.33,75Z"/><path class="cls-7" d="M557.69,75c0,8.49-4.33,15.37-9.69,15.37s-9.68-6.88-9.68-15.37,4.33-15.38,9.68-15.38S557.69,66.47,557.69,75Z"/><path class="cls-4" d="M548.22,75c0,4.62-2.36,8.37-5.27,8.37s-5.28-3.75-5.28-8.37S540,66.58,543,66.58,548.22,70.33,548.22,75Z"/><ellipse class="cls-7" cx="540.96" cy="74.96" rx="5.28" ry="8.38"/><path class="cls-4" d="M537,101.21h-4a4.78,4.78,0,0,1-4.43-6.6l0-.1L538.7,74.29a1.5,1.5,0,0,1,2.69,1.33l-10,20.17A1.78,1.78,0,0,0,533,98.21h4a1.5,1.5,0,0,1,0,3Z"/><path class="cls-5" d="M298.18,155.35s-21.85,5.38-29.07,10.94-11.34,32.57-11.34,32.57H360s-5.56-28.45-11.33-35-29-8.18-29-8.18l-21.52-.29"/><polyline class="cls-14" points="298.18 155.34 304.77 167.32 311.72 161.33 317.66 167.32 319.7 155.64 298.18 155.34"/><path class="cls-2" d="M298.18,127.76v27.59s4.63,3.93,12.78,3.46c7.54-.44,8.74-3.17,8.74-3.17l3.12-14.31-24.64-13.57"/><path class="cls-3" d="M320.23,153.23c-4.05.9-8.74-1.63-12.24-4.41-6.46-5.13-9.07-15.3-9.07-15.3l21.36,6.41,2.54,1.4-2.59,11.9"/><path class="cls-2" d="M336.25,140.2c-7.53,15.85-26.23,6.49-34.23-1.5s-6.9-38.53-4.69-44.31,20.72-10.48,30.49-6.75,16,36.72,8.43,52.56"/><path class="cls-12" d="M307.84,113.73s2.08,17.54,6.88,18.94c4.1,1.2,9.81-4.66,17.21-5,4.12-.17,5.6.22,7.28,1.35a36.21,36.21,0,0,1-2.95,11.16c-7.53,15.85-26.23,6.49-34.24-1.5-3.87-3.87-5.61-13-6.13-22.09l11.95-2.88"/><path class="cls-12" d="M304.69,120s2.31.22,3.26-1.15-1.77-9.13,1-17.35c1.95-5.87,10.82-9.28,18.08-7.85s9.09,2.07,9.83,0-2.17-7.07-4.69-9S317.81,79.16,308,83.17s-11.81,6.69-14,13.07-.79,22.36,0,23.38,10.73.4,10.73.4"/><path class="cls-2" d="M293.56,118.71c0,4.09,5.43,7.72,8.76,7.72s3.31-3.63,3.31-7.72-2.7-7.4-6-7.4-6,3.32-6,7.4"/><path class="cls-12" d="M339.21,129s0,19.21-2.26,22.67-9.69,4.22-13.05,2.77-8.82-6.65-10.18-11.06,19.9-10.7,19.9-10.7l5.59-3.68"/><path class="cls-3" d="M295.76,116.8c-.38,1.83,1.7,4,3.2,4.29s-1.72-2.18-1.33-4,3-2.7,1.54-3-3,.91-3.41,2.74"/><path class="cls-14" d="M335.33,135.33s-8,.21-9.3-.22l-1.33-.42a5.83,5.83,0,0,0,3.73,5.24,4.58,4.58,0,0,0,6.21-2.51c.49-1.37.69-2.09.69-2.09"/><polyline class="cls-22" points="331.42 60.34 298.18 60.34 293.61 78.15 326.85 78.15 331.42 60.34"/><path class="cls-23" d="M326.85,78.15H293.61L271.39,164.8c8.69-5,26.79-9.45,26.79-9.45h0v-24a51,51,0,0,1-1.57-7.33c-1.73-1.41-3.05-3.31-3.05-5.33,0-.16,0-.33,0-.49-.74-4.24-1.48-16.57.39-22,2.2-6.38,4.17-9,14-13.07a27,27,0,0,1,10.17-1.85,35.15,35.15,0,0,1,7.68.86l1-4"/><path class="cls-24" d="M298.18,155.35s-18.1,4.45-26.79,9.45l-8.74,34.06h33.24l8.34-32.51-6.05-11"/><path class="cls-14" d="M298.18,155.35h0l6.05,11,2-7.76a17.34,17.34,0,0,1-8-3.24h0"/><path class="cls-25" d="M298.18,131.37v24h0a17.34,17.34,0,0,0,8,3.24l2.38-9.29-.61-.48c-6.15-4.88-8.81-14.34-9.05-15.24-.27-.7-.53-1.44-.76-2.21"/><path class="cls-26" d="M298.94,133.58c.24.9,2.9,10.36,9.05,15.24l.61.48,1.21-4.69A38.75,38.75,0,0,1,302,138.7a14.68,14.68,0,0,1-3.08-5.12"/><path class="cls-25" d="M296.61,124a51,51,0,0,0,1.57,7.33c.23.77.49,1.51.76,2.21A14.68,14.68,0,0,0,302,138.7a38.75,38.75,0,0,0,7.79,5.91h0a38.36,38.36,0,0,1-7.79-5.9c-2.8-2.8-4.49-8.36-5.4-14.66h0M323,93.36c-6.19.2-12.43,3.35-14,8.16a30.07,30.07,0,0,0-1.08,12.21h0s1.62,13.69,5.31,17.85L323,93.36"/><path class="cls-27" d="M307.84,113.73h0c.22,2.63.53,4.53.11,5.14a3.12,3.12,0,0,1-2.32,1.13c0,3.53-.33,6.43-3.31,6.43a10,10,0,0,1-5.7-2.39c.91,6.3,2.6,11.86,5.4,14.66a38.36,38.36,0,0,0,7.79,5.9l3.34-13c-3.69-4.16-5.31-17.85-5.31-17.85"/><path class="cls-27" d="M318.14,81.32A27,27,0,0,0,308,83.17c-9.84,4-11.81,6.69-14,13.07-1.87,5.41-1.13,17.74-.39,22,.21-3.86,2.83-6.91,6-6.91s6,3.32,6,7.4V120a3.12,3.12,0,0,0,2.32-1.13c.42-.61.11-2.51-.11-5.14a30.07,30.07,0,0,1,1.08-12.21c1.6-4.81,7.84-8,14-8.16l2.87-11.18a35.15,35.15,0,0,0-7.68-.86"/><path class="cls-25" d="M299.17,121.12l-.21,0c-1.5-.32-3.58-2.46-3.2-4.29A3.28,3.28,0,0,1,298.7,114a2.59,2.59,0,0,1,.47,0c1.49.32-1.15,1.19-1.54,3s2.46,4,1.54,4m.43-9.81c-3.2,0-5.82,3-6,6.91,0,.16,0,.33,0,.49,0,2,1.32,3.92,3.05,5.33h0a10,10,0,0,0,5.7,2.39c3,0,3.28-2.9,3.31-6.43v-1.29c0-4.08-2.7-7.4-6-7.4"/><path class="cls-26" d="M298.7,114a3.28,3.28,0,0,0-2.94,2.79c-.38,1.83,1.7,4,3.2,4.29l.21,0c.92,0-1.91-2.32-1.54-4s3-2.7,1.54-3a2.59,2.59,0,0,0-.47,0"/><polyline class="cls-22" points="374.99 60.34 341.75 60.34 337.18 78.15 370.43 78.15 374.99 60.34"/><path class="cls-23" d="M370.42,78.15H337.18l-2.4,9.38c1.48,2.17,2.53,4.73,2.05,6.1A1.88,1.88,0,0,1,334.71,95a4.52,4.52,0,0,1-.51,0c4.12,8.49,6.37,22.5,5,34.08h0s0,19.21-2.26,22.67c-1.53,2.37-5.49,3.47-8.91,3.47a10.88,10.88,0,0,1-4.14-.7,15.33,15.33,0,0,1-3.46-2.22l-.74,3.38h0s22.75,1.55,28.8,8l21.92-85.48"/><path class="cls-24" d="M319.7,155.64l-2,11.68L315,164.64l-8.78,34.22h33.25l9-35.23c-6.05-6.44-28.8-8-28.8-8h0"/><path class="cls-14" d="M319.7,155.64s-.51,1.15-2.92,2.08L315,164.64l2.66,2.68,2-11.68"/><path class="cls-25" d="M320.44,152.26l-.21,1a8.52,8.52,0,0,1-1.75.18l-.59,0-1.11,4.33c2.41-.93,2.92-2.08,2.92-2.08h0l.74-3.38h0"/><path class="cls-26" d="M318.6,150.61l-.71,2.78.59,0a8.52,8.52,0,0,0,1.75-.18l.21-1c-.62-.5-1.24-1.06-1.84-1.65"/><path class="cls-25" d="M332.91,94.81l-9,35.1a21.83,21.83,0,0,1,8-2.22c.62,0,1.18,0,1.69,0,2.88,0,4.16.43,5.58,1.39,1.37-11.58-.88-25.59-5-34.08-.38,0-.8-.08-1.29-.15"/><path class="cls-27" d="M333.62,127.65c-.51,0-1.07,0-1.69,0a21.83,21.83,0,0,0-8,2.22l-1.78,6.94c.9-.39,1.81-.76,2.71-1.11a5.28,5.28,0,0,1-.14-1.05l1.33.42a1.54,1.54,0,0,0,.29.07c3.95-1.47,7.3-2.46,7.3-2.46l5.59-3.68h0c-1.42-1-2.7-1.39-5.58-1.39"/><path class="cls-27" d="M334.78,87.53l-1.87,7.28c.49.07.91.13,1.29.15a4.52,4.52,0,0,0,.51,0,1.88,1.88,0,0,0,2.12-1.35c.48-1.37-.57-3.93-2.05-6.1"/><path class="cls-27" d="M339.21,129h0l-5.59,3.68s-3.35,1-7.3,2.46a38.26,38.26,0,0,0,4.86.2c2.16,0,4.15,0,4.15,0h0s-.2.72-.69,2.09a4.49,4.49,0,0,1-4.18,2.9,5.71,5.71,0,0,1-2-.39,5.59,5.59,0,0,1-3.59-4.19c-.9.35-1.81.72-2.71,1.11l-3.53,13.76c.6.59,1.22,1.15,1.84,1.65h0a15.33,15.33,0,0,0,3.46,2.22,10.88,10.88,0,0,0,4.14.7c3.42,0,7.38-1.1,8.91-3.47,2.24-3.46,2.26-22.67,2.26-22.67h0"/><path class="cls-14" d="M324.7,134.69a5.28,5.28,0,0,0,.14,1.05,5.59,5.59,0,0,0,3.59,4.19,5.71,5.71,0,0,0,2,.39,4.49,4.49,0,0,0,4.18-2.9c.49-1.37.69-2.09.69-2.09s-2,0-4.15,0a38.26,38.26,0,0,1-4.86-.2,1.54,1.54,0,0,1-.29-.07l-1.33-.42"/><polygon class="cls-28" points="452.02 145.68 377.81 145.68 377.12 140.32 451.33 140.32 452.02 145.68"/><polygon class="cls-28" points="454.29 167.32 380.08 167.32 379.39 161.97 453.6 161.97 454.29 167.32"/><polygon class="cls-28" points="464.73 156.09 378.74 156.09 377.95 150.73 463.93 150.73 464.73 156.09"/><path class="cls-4" d="M627.39,360.58H613a26.63,26.63,0,0,0-26.61,26.61v68A26.63,26.63,0,0,0,613,481.79h16.19v-9H613a17.63,17.63,0,0,1-17.63-17.63v-68A17.63,17.63,0,0,1,613,369.56h14.39Z"/><rect class="cls-4" x="651.03" y="337.09" width="28.4" height="31.12" rx="6.83" ry="6.83"/><rect class="cls-6" x="656.16" y="337.09" width="28.4" height="31.12" rx="6.83" ry="6.83"/><rect class="cls-5" x="605.84" y="349.22" width="93.37" height="140.15" rx="12" ry="12"/><rect class="cls-7" x="627.39" y="349.22" width="93.37" height="140.15" rx="12" ry="12"/><path class="cls-9" d="M720.76,477.37V425.58l-93.37,32.67v19.12a12,12,0,0,0,12,12h69.37A12,12,0,0,0,720.76,477.37Z"/><path class="cls-4" d="M699.56,479.24h-51a12,12,0,0,1-12-12V395.3h63a12,12,0,0,1,12,12v59.94A12,12,0,0,1,699.56,479.24Z"/><path class="cls-5" d="M703.6,479.24h-51a12,12,0,0,1-12-12V395.3h75v71.94A12,12,0,0,1,703.6,479.24Z"/><rect class="cls-4" x="636.59" y="359.54" width="74.97" height="31.12" rx="6.83" ry="6.83"/><rect class="cls-5" x="640.63" y="359.54" width="74.97" height="31.12" rx="6.83" ry="6.83"/><path class="cls-29" d="M640.63,435.8v31.44a12,12,0,0,0,12,12h51a12,12,0,0,0,12-12V409.85Z"/><polygon class="cls-30" points="250.43 13.83 176.22 13.83 175.54 8.47 249.74 8.47 250.43 13.83"/><polygon class="cls-30" points="252.7 35.48 178.49 35.48 177.8 30.12 252.01 30.12 252.7 35.48"/><polygon class="cls-30" points="263.14 24.24 177.16 24.24 176.36 18.89 262.35 18.89 263.14 24.24"/><path class="cls-31" d="M121.8,331.31s1.14-35.26,0-87.21,56.94-99.28,104.92-75.62c0,0-30.8.38-52.72,19.43s-34.36,30.22-36.14,62.84-8.33,80.56-8.33,80.56Z"/><path class="cls-31" d="M100.69,331.21s-3.8-103.11-16.18-143.3,4.2-130.24,4.2-130.24.6,69.55,10.67,103.79,27.3,78.47,24,118.56-11.79,51.29-11.79,51.29Z"/><path class="cls-32" d="M109.21,195.21l-25.65-8.47c.11.39.22.79.34,1.17,12.38,40.19,16.18,143.3,16.18,143.3l10.92.1s8.5-11.21,11.79-51.29C125.07,252.17,117.45,222.32,109.21,195.21Z"/><path class="cls-28" d="M101.86,331.31S118.16,279.89,89.75,198,26.21,97.35,26.21,97.35s31.67,69,44.92,123,13.42,111,13.42,111Z"/><path class="cls-32" d="M140.29,193c-11.65,14.38-18.87,32.44-18.47,51.09,1.12,52,0,87.21,0,87.21h7.75s6.55-47.94,8.33-80.56c1.28-23.44,8.06-35.81,19.91-48Z"/><path class="cls-28" d="M109.54,331.31s8.6-49.46-.89-119.47S189.39,80.18,189.39,80.18,142,135.71,133.44,180.74s-1.75,100.71-7.18,128.68c-3.34,17.23-3.63,21.89-3.63,21.89Z"/><path class="cls-28" d="M129.55,331.31s4.78-30.92,4.19-76.75,28.52-84.22,0-152.1S85.16,36.35,85.16,36.35s33.77-3,57.46,39.69,28.6,97.56,13,150.21S141,331.31,141,331.31Z"/><path class="cls-31" d="M101.86,331.31S114.75,290.65,97.63,224L70.2,216.65c.32,1.24.63,2.48.94,3.71,13.25,54,13.41,111,13.41,111Z"/><path class="cls-31" d="M111.35,234.92c5.06,57.56-1.69,96.39-1.69,96.39h13.1s.28-4.66,3.63-21.89c3.51-18.1,1.88-47.79,2.62-78.69Z"/><path class="cls-31" d="M133.78,258.25c.3,43.79-4.22,73.06-4.22,73.06H141a397.34,397.34,0,0,1,5.52-64.73Z"/><path class="cls-33" d="M80.12,330.32c-15.3,18.07-25.33,48.16-25.33,82.24,0,30.95,8.27,58.62,21.26,77h75.22c13-18.36,21.26-46,21.26-77,0-34.08-10-64.17-25.34-82.24Z"/><path class="cls-34" d="M124.89,330.32H80.12c-15.3,18.07-25.33,48.16-25.33,82.24,0,30.95,8.27,58.62,21.26,77h48.84Z"/><rect class="cls-4" y="488.87" width="787.79" height="1"/></g></g></svg>