<?xml version="1.0" encoding="iso-8859-1"?>
<!-- Generator: Adobe Illustrator 19.0.0, SVG Export Plug-In . SVG Version: 6.00 Build 0)  -->
<svg version="1.1" id="Capa_1" xmlns="http://www.w3.org/2000/svg" xmlns:xlink="http://www.w3.org/1999/xlink" x="0px" y="0px"
	 viewBox="0 0 512 512" style="enable-background:new 0 0 512 512;" xml:space="preserve">
<g>
	<g>
		<path d="M458.667,0H53.333C23.893,0.035,0.035,23.893,0,53.333v405.333C0.035,488.107,23.893,511.965,53.333,512h405.333
			c29.441-0.035,53.298-23.893,53.333-53.333V53.333C511.965,23.893,488.107,0.035,458.667,0z M490.667,458.667
			c0,17.673-14.327,32-32,32H53.333c-17.673,0-32-14.327-32-32V53.333c0-17.673,14.327-32,32-32h405.333c17.673,0,32,14.327,32,32
			V458.667z"/>
	</g>
</g>
<g>
	<g>
		<rect x="42.667" y="85.333" width="160" height="21.333"/>
	</g>
</g>
<g>
	<g>
		<rect x="53.333" y="42.667" width="21.333" height="21.333"/>
	</g>
</g>
<g>
	<g>
		<rect x="96" y="42.667" width="21.333" height="21.333"/>
	</g>
</g>
<g>
	<g>
		<rect x="437.333" y="42.667" width="21.333" height="21.333"/>
	</g>
</g>
<g>
	<g>
		<path d="M448,170.667H64c-11.782,0-21.333,9.551-21.333,21.333v234.667C42.667,438.449,52.218,448,64,448h384
			c11.782,0,21.333-9.551,21.333-21.333V192C469.333,180.218,459.782,170.667,448,170.667z M448,426.667H64V192h384V426.667z"/>
	</g>
</g>
<g>
	<g>
		<path d="M263.541,88.459c-4.165-4.164-10.917-4.164-15.083,0l-85.333,85.333l15.083,15.083L256,111.083l77.461,77.461
			l15.083-15.083L263.541,88.459z"/>
	</g>
</g>
<g>
	<g>
		<rect x="309.333" y="85.333" width="149.333" height="21.333"/>
	</g>
</g>
<g>
	<g>
		<path d="M192,298.667v-32c0.018-0.606,0.018-1.213,0-1.819c-0.502-17.171-14.829-30.684-32-30.181h-21.333
			c-0.606-0.018-1.213-0.018-1.819,0c-17.171,0.502-30.684,14.829-30.181,32V384H128v-53.333h32c0.606,0.018,1.213,0.018,1.819,0
			C178.99,330.164,192.502,315.838,192,298.667z M170.678,300.493c-0.507,5.39-5.288,9.348-10.678,8.841h-32v-42.667
			c-0.062-0.634-0.062-1.273,0-1.907c0.526-5.365,5.302-9.286,10.667-8.76H160c0.634-0.062,1.273-0.062,1.907,0
			c5.365,0.526,9.286,5.302,8.76,10.667v31.872C170.736,299.188,170.74,299.843,170.678,300.493z"/>
	</g>
</g>
<g>
	<g>
		<path d="M405.333,298.667v-32c0.018-0.606,0.018-1.213,0-1.819c-0.502-17.171-14.829-30.684-32-30.181H352
			c-0.606-0.018-1.213-0.018-1.819,0c-17.171,0.502-30.684,14.829-30.181,32V384h21.333v-53.333h32c0.606,0.018,1.213,0.018,1.819,0
			C392.323,330.164,405.836,315.838,405.333,298.667z M384.012,300.493c-0.507,5.39-5.288,9.348-10.678,8.841h-32v-42.667
			c-0.062-0.634-0.062-1.273,0-1.907c0.526-5.365,5.302-9.286,10.667-8.76h21.333c0.634-0.062,1.273-0.062,1.907,0
			c5.365,0.526,9.287,5.302,8.76,10.667v31.872C384.069,299.188,384.073,299.843,384.012,300.493z"/>
	</g>
</g>
<g>
	<g>
		<rect x="213.333" y="234.667" width="21.333" height="149.333"/>
	</g>
</g>
<g>
	<g>
		<rect x="277.333" y="234.667" width="21.333" height="149.333"/>
	</g>
</g>
<g>
	<g>
		<rect x="224" y="298.667" width="64" height="21.333"/>
	</g>
</g>
<g>
</g>
<g>
</g>
<g>
</g>
<g>
</g>
<g>
</g>
<g>
</g>
<g>
</g>
<g>
</g>
<g>
</g>
<g>
</g>
<g>
</g>
<g>
</g>
<g>
</g>
<g>
</g>
<g>
</g>
</svg>
